<svg xmlns="http://www.w3.org/2000/svg" width="1001.409" height="161.949" viewBox="0 0 1001.409 161.949">
  <g id="그룹_2539" data-name="그룹 2539" transform="translate(-401.158 -113)">
    <path id="패스_2373" data-name="패스 2373" d="M365.158,161.949V0h56.571a78.236,78.236,0,0,1,31.613,6.434,82.874,82.874,0,0,1,25.735,17.415,81.268,81.268,0,0,1,17.3,25.734A78.841,78.841,0,0,1,502.7,80.975a78.825,78.825,0,0,1-6.324,31.391,81.239,81.239,0,0,1-17.3,25.735,82.857,82.857,0,0,1-25.735,17.415,78.2,78.2,0,0,1-31.613,6.433Zm56.571-20.41a58.623,58.623,0,0,0,23.627-4.77A61.1,61.1,0,0,0,477.524,104.6a60.634,60.634,0,0,0,0-47.142A60.791,60.791,0,0,0,445.356,25.18a58.673,58.673,0,0,0-23.627-4.77H385.567V141.539Z" transform="translate(36 113)"/>
    <path id="패스_2374" data-name="패스 2374" d="M575.69,84.746v77.2h-20.41V84.968L552.617,81.2,490.72,0h25.513l49.251,64.336L614.513,0h25.735Z" transform="translate(36 113)"/>
    <path id="패스_2375" data-name="패스 2375" d="M780.231,161.949,674.63,29.284V161.949h-20.41V0h23.3l105.6,132.665V0h20.41V161.949Z" transform="translate(36 113)"/>
    <path id="패스_2376" data-name="패스 2376" d="M933.527,127.784H855.658l-13.31,34.165H820.384L884.276,0h21.3L968.8,161.949H946.838Zm-7.987-20.41L894.481,28.4l-30.837,78.978Z" transform="translate(36 113)"/>
    <path id="패스_2377" data-name="패스 2377" d="M1133.633,161.949h-20.41V51.912l-43.261,110.037h-21.3L1005.626,52.356V161.949h-20.41V0h21.964l52.355,133.553L1111.67,0h21.963Z" transform="translate(36 113)"/>
    <rect id="사각형_964" data-name="사각형 964" width="20.41" height="161.949" transform="translate(1198.47 113)"/>
    <path id="패스_2378" data-name="패스 2378" d="M1366.567,107.374a76.165,76.165,0,0,1-11.536,21.964,82.083,82.083,0,0,1-17.526,17.192,82.958,82.958,0,0,1-22.074,11.315,78.435,78.435,0,0,1-25.4,4.1,77.637,77.637,0,0,1-31.392-6.433,82.072,82.072,0,0,1-43.15-43.15,77.636,77.636,0,0,1-6.434-31.391,77.651,77.651,0,0,1,6.434-31.392,82.075,82.075,0,0,1,43.15-43.149A77.671,77.671,0,0,1,1290.03,0a78.542,78.542,0,0,1,25.4,4.1,83.252,83.252,0,0,1,22.074,11.315,81.05,81.05,0,0,1,17.526,17.3A77.756,77.756,0,0,1,1366.567,54.8H1344.6a55.808,55.808,0,0,0-9.207-14.087,59.065,59.065,0,0,0-12.756-10.76,65.515,65.515,0,0,0-15.307-6.988,58.078,58.078,0,0,0-17.3-2.551,58.909,58.909,0,0,0-23.517,4.77,60.49,60.49,0,0,0-32.278,32.279,60.614,60.614,0,0,0,0,47.143,60.8,60.8,0,0,0,32.278,32.168,58.874,58.874,0,0,0,23.517,4.769,57.982,57.982,0,0,0,17.3-2.551,63.09,63.09,0,0,0,15.2-6.988,60.207,60.207,0,0,0,12.645-10.76,62.916,62.916,0,0,0,9.429-13.866Z" transform="translate(36 113)"/>
  </g>
</svg>
