<svg xmlns="http://www.w3.org/2000/svg" width="284.628" height="161.949" viewBox="0 0 284.628 161.949">
  <g id="그룹_2540" data-name="그룹 2540" transform="translate(-218.579 -630)">
    <path id="패스_2371" data-name="패스 2371" d="M0,161.949V0H56.571A78.236,78.236,0,0,1,88.184,6.434a82.874,82.874,0,0,1,25.735,17.415,81.268,81.268,0,0,1,17.3,25.734,78.841,78.841,0,0,1,6.324,31.392,78.825,78.825,0,0,1-6.324,31.391,81.239,81.239,0,0,1-17.3,25.735,82.857,82.857,0,0,1-25.735,17.415,78.2,78.2,0,0,1-31.613,6.433Zm56.571-20.41a58.623,58.623,0,0,0,23.627-4.77A61.1,61.1,0,0,0,112.366,104.6a60.634,60.634,0,0,0,0-47.142A60.791,60.791,0,0,0,80.2,25.18a58.673,58.673,0,0,0-23.627-4.77H20.409V141.539Z" transform="translate(218.579 630)"/>
    <path id="패스_2372" data-name="패스 2372" d="M159.948,0h124.68V20.41H180.358V70.77h104.27V91.18H180.358v70.769h-20.41Z" transform="translate(218.579 630)"/>
    <rect id="사각형_965" data-name="사각형 965" width="284.628" height="161.949" transform="translate(218.579 630)" fill="none"/>
  </g>
</svg>
