<svg xmlns="http://www.w3.org/2000/svg" viewBox="0 0 94.071 34.076" data-v-7f56df62=""><g transform="translate(-83.428 -22.754)" data-v-7f56df62=""><path d="M210.446,20.052a5.55,5.55,0,1,1,0-4.822h2.019a7.422,7.422,0,1,0,0,4.822Z" transform="translate(-114.598 12.54)" fill="#fff" data-v-7f56df62=""></path> <path d="M259.007,20.049l2.833-7.234,2.833,7.234Zm7.627,5.006h2l-5.8-14.844h-1.951l-5.848,14.844h2.005l1.228-3.135h7.132Z" transform="translate(-156.23 12.544)" fill="#fff" data-v-7f56df62=""></path> <path d="M313.108,12.089h3.839a3.512,3.512,0,1,1,0,7.024h-3.839ZM322.33,15.6a5.39,5.39,0,0,0-5.384-5.384h-3.839v-.006h-1.872V25.055h1.872V20.985h3.366l2.993,4.067h2.323L318.6,20.723A5.393,5.393,0,0,0,322.33,15.6" transform="translate(-197.264 12.544)" fill="#fff" data-v-7f56df62=""></path> <path d="M360.247,10.21V25.054h11.425V23.184h-9.554V18.575h9.554V16.7h-9.554V12.088h9.554V10.217Z" transform="translate(-233.052 12.544)" fill="#fff" data-v-7f56df62=""></path> <path d="M410.929,10.21V25.054h11.425V23.184H412.8V18.575h9.554V16.7H412.8V12.088h9.554V10.217Z" transform="translate(-270.06 12.544)" fill="#fff" data-v-7f56df62=""></path> <path d="M463.719,12.089h3.839a3.512,3.512,0,1,1,0,7.024h-3.839Zm9.223,3.512a5.39,5.39,0,0,0-5.384-5.384h-3.839v-.006h-1.872V25.055h1.872V20.985h3.366l2.993,4.067H472.4l-3.186-4.329a5.393,5.393,0,0,0,3.727-5.121" transform="translate(-307.239 12.544)" fill="#fff" data-v-7f56df62=""></path> <path d="M518.206,19.576a4.18,4.18,0,0,0-2.293-2.446l-4.075-1.619a2,2,0,0,1-1.058-.971,1.8,1.8,0,0,1,.411-1.894,2.752,2.752,0,0,1,1.842-.571,4.079,4.079,0,0,1,3.383,1.474l1.357-1.3a5.881,5.881,0,0,0-4.543-2.037,4.682,4.682,0,0,0-3.3,1.047A3.71,3.71,0,0,0,508.957,15a3.871,3.871,0,0,0,2.1,2.207l4.048,1.606a2.07,2.07,0,0,1,1.327,1.521,2.354,2.354,0,0,1-.368,1.654,3.055,3.055,0,0,1-2.669,1.188c-2.991,0-3.835-1.818-4.071-2.731l-1.459,1.383c.651,1.426,2.141,3.219,5.53,3.219a4.827,4.827,0,0,0,4.173-1.946,4.279,4.279,0,0,0,.637-3.53" transform="translate(-340.843 12.547)" fill="#fff" data-v-7f56df62=""></path> <path d="M210.446,91.323a5.55,5.55,0,1,1,0-4.822h2.019a7.422,7.422,0,1,0,0,4.822Z" transform="translate(-114.598 -39.502)" fill="#fff" data-v-7f56df62=""></path> <path d="M259.007,91.32l2.833-7.234,2.833,7.234Zm7.627,5.006h2l-5.8-14.844h-1.951l-5.848,14.844h2.005l1.228-3.135h7.132Z" transform="translate(-156.23 -39.498)" fill="#fff" data-v-7f56df62=""></path> <path d="M313.108,83.359h3.839a3.512,3.512,0,1,1,0,7.024h-3.839Zm9.223,3.512a5.39,5.39,0,0,0-5.384-5.384h-3.839v-.007h-1.872V96.326h1.872V92.255h3.366l2.993,4.067h2.323L318.6,91.993a5.393,5.393,0,0,0,3.727-5.121" transform="translate(-197.264 -39.497)" fill="#fff" data-v-7f56df62=""></path> <path d="M360.247,81.481V96.325h11.425V94.455h-9.554V89.846h9.554V87.975h-9.554V83.359h9.554V81.488Z" transform="translate(-233.052 -39.498)" fill="#fff" data-v-7f56df62=""></path> <path d="M410.929,81.481V96.325h11.425V94.455H412.8V89.846h9.554V87.975H412.8V83.359h9.554V81.488Z" transform="translate(-270.06 -39.498)" fill="#fff" data-v-7f56df62=""></path> <path d="M463.719,83.359h3.839a3.512,3.512,0,1,1,0,7.024h-3.839Zm9.223,3.512a5.39,5.39,0,0,0-5.384-5.384h-3.839v-.007h-1.872V96.326h1.872V92.255h3.366l2.993,4.067H472.4l-3.186-4.329a5.393,5.393,0,0,0,3.727-5.121" transform="translate(-307.239 -39.497)" fill="#fff" data-v-7f56df62=""></path> <path d="M518.206,90.847a4.18,4.18,0,0,0-2.293-2.446l-4.075-1.619a2,2,0,0,1-1.058-.971,1.8,1.8,0,0,1,.411-1.894,2.752,2.752,0,0,1,1.842-.571,4.079,4.079,0,0,1,3.383,1.474l1.357-1.3a5.881,5.881,0,0,0-4.543-2.037,4.682,4.682,0,0,0-3.3,1.047,3.71,3.71,0,0,0-.976,3.742,3.871,3.871,0,0,0,2.1,2.207l4.048,1.606a2.07,2.07,0,0,1,1.327,1.521,2.354,2.354,0,0,1-.368,1.654,3.055,3.055,0,0,1-2.669,1.188c-2.991,0-3.835-1.818-4.071-2.731L507.866,93.1c.651,1.426,2.141,3.219,5.53,3.219a4.827,4.827,0,0,0,4.173-1.946,4.278,4.278,0,0,0,.637-3.53" transform="translate(-340.843 -39.495)" fill="#fff" data-v-7f56df62=""></path></g></svg>