<!-- <svg xmlns="http://www.w3.org/2000/svg" viewBox="0 0 48.319 34.3" data-v-7f56df62=""><g transform="translate(-30 -22.708)" data-v-7f56df62=""><rect width="4.279" height="4.279" transform="translate(74.04 22.708)" fill="#fff" data-v-7f56df62=""></rect> <path d="M22.643,21.056a13.435,13.435,0,1,0,0,19.541v3.739h4.279v-34.3H22.643ZM13.435,39.977a9.15,9.15,0,1,1,9.15-9.15,9.161,9.161,0,0,1-9.15,9.15" transform="translate(30 12.672)" fill="#fff" data-v-7f56df62=""></path> <path d="M119.773,10.036h-4.279V44.28h4.279V31.432h12.879V27.153H119.773Z" transform="translate(-54.333 12.672)" fill="#fff" data-v-7f56df62=""></path></g></svg> -->
<svg xmlns="http://www.w3.org/2000/svg" viewBox="0 0 48.319 34.3" data-v-7f56df62=""><g transform="translate(-30 -22.708)" data-v-7f56df62=""><rect width="4.279" height="4.279" transform="translate(74.04 22.708)" data-v-7f56df62=""></rect> <path d="M22.643,21.056a13.435,13.435,0,1,0,0,19.541v3.739h4.279v-34.3H22.643ZM13.435,39.977a9.15,9.15,0,1,1,9.15-9.15,9.161,9.161,0,0,1-9.15,9.15" transform="translate(30 12.672)"  data-v-7f56df62=""></path> <path d="M119.773,10.036h-4.279V44.28h4.279V31.432h12.879V27.153H119.773Z" transform="translate(-54.333 12.672)" data-v-7f56df62=""></path></g></svg>